<svg xmlns="http://www.w3.org/2000/svg" viewBox="0 0 400 560" width="400" height="560">
  <defs>
    <linearGradient id="bg30" x1="0%" y1="0%" x2="100%" y2="100%">
      <stop offset="0%" style="stop-color:#1a5276"/>
      <stop offset="100%" style="stop-color:#2980b9"/>
    </linearGradient>
    <linearGradient id="face30" x1="0%" y1="0%" x2="100%" y2="100%">
      <stop offset="0%" style="stop-color:#d4a574"/>
      <stop offset="100%" style="stop-color:#d4a574dd"/>
    </linearGradient>
    <filter id="shadow30">
      <feDropShadow dx="2" dy="4" stdDeviation="4" flood-opacity="0.3"/>
    </filter>
  </defs>
  
  <!-- Background -->
  <rect width="400" height="560" fill="url(#bg30)" rx="16"/>
  
  <!-- Decorative pattern -->
  <g opacity="0.08">
    <circle cx="236" cy="515" r="15" fill="white"/><circle cx="282" cy="137" r="17" fill="white"/><circle cx="289" cy="116" r="27" fill="white"/><circle cx="164" cy="124" r="35" fill="white"/><circle cx="211" cy="465" r="17" fill="white"/><circle cx="316" cy="373" r="28" fill="white"/><circle cx="55" cy="356" r="32" fill="white"/><circle cx="375" cy="23" r="34" fill="white"/><circle cx="287" cy="364" r="15" fill="white"/><circle cx="120" cy="439" r="32" fill="white"/><circle cx="357" cy="113" r="25" fill="white"/><circle cx="300" cy="292" r="40" fill="white"/>
  </g>
  
  <!-- Card border accent -->
  <rect x="12" y="12" width="376" height="536" rx="12" fill="none" stroke="white" stroke-width="1" opacity="0.15"/>
  <rect x="16" y="16" width="368" height="528" rx="10" fill="none" stroke="white" stroke-width="0.5" opacity="0.1"/>
  
  <!-- Name plate area -->
  <rect x="20" y="440" width="360" height="100" rx="10" fill="black" opacity="0.4"/>
  <rect x="20" y="440" width="360" height="3" fill="#2980b9" opacity="0.6"/>
  
  <!-- Rarity badge -->
  <rect x="300" y="28" width="80" height="28" rx="14" fill="white" opacity="0.12"/>
  <text x="340" y="47" text-anchor="middle" fill="white" font-family="Arial,sans-serif" font-size="11" font-weight="bold" opacity="0.7">COMMON</text>
  
  <!-- Faction badge -->
  <rect x="20" y="28" width="60" height="28" rx="14" fill="white" opacity="0.1"/>
  <text x="50" y="47" text-anchor="middle" fill="white" font-family="Arial,sans-serif" font-size="14">🎩</text>
  
  <!-- Character body (simplified) -->
  <g filter="url(#shadow30)">
    <!-- Shoulders -->
    <ellipse cx="200" cy="400" rx="90" ry="30" fill="#1a1a1a" opacity="0.15"/>
    
    <!-- Neck -->
    <rect x="185" y="290" width="30" height="40" rx="10" fill="#d4a574dd"/>
    
    <!-- Head/face -->
    <ellipse cx="200" cy="260" rx="55" ry="60" fill="url(#face30)"/>
    
    <!-- Hair -->
    <ellipse cx="200" cy="230" rx="59" ry="50" fill="#1a1a1a"/>
    <ellipse cx="200" cy="240" rx="63" ry="20" fill="#1a1a1a" opacity="0.9"/>
    
    <!-- Side hair -->
    <rect x="110" y="240" width="12" height="40" rx="6" fill="#1a1a1a" opacity="0.7"/>
    <rect x="278" y="240" width="12" height="40" rx="6" fill="#1a1a1a" opacity="0.7"/>
    
    <!-- Eyes -->
    <ellipse cx="175" cy="258" rx="10" ry="6" fill="white"/>
    <ellipse cx="225" cy="258" rx="10" ry="6" fill="white"/>
    <ellipse cx="175" cy="258" rx="5" ry="5" fill="#2c1810"/>
    <ellipse cx="225" cy="258" rx="5" ry="5" fill="#2c1810"/>
    <ellipse cx="175" cy="256" rx="2" ry="2" fill="white"/>
    <ellipse cx="225" cy="256" rx="2" ry="2" fill="white"/>
    
    <!-- Eyebrows -->
    <path d="M 162 248 Q 175 244 188 248" stroke="#1a1a1a" stroke-width="2.5" fill="none"/>
    <path d="M 212 248 Q 225 244 238 248" stroke="#1a1a1a" stroke-width="2.5" fill="none"/>
    
    <!-- Nose -->
    <path d="M 200 258 Q 195 270 200 275 Q 205 270 200 258" fill="#d4a574bb" stroke="#d4a574aa" stroke-width="0.5"/>
    
    <!-- Mouth -->
    <path d="M 188 285 Q 200 292 212 285" stroke="#c0392b" stroke-width="2" fill="none" stroke-linecap="round"/>
    
    <!-- Glasses (some wear them) -->
    <rect x="160" y="250" width="30" height="22" rx="6" fill="none" stroke="#2c3e50" stroke-width="2"/><rect x="210" y="250" width="30" height="22" rx="6" fill="none" stroke="#2c3e50" stroke-width="2"/><line x1="190" y1="260" x2="210" y2="260" stroke="#2c3e50" stroke-width="1.5"/>
    
    <!-- Moustache (some) -->
    <path d="M 185 282 Q 200 278 215 282" stroke="#1a1a1a" stroke-width="3" fill="none" stroke-linecap="round"/>
    
    <!-- Collar/shirt -->
    <path d="M 155 330 L 200 370 L 245 330" fill="#2980b9" opacity="0.3" stroke="white" stroke-width="0.5" stroke-opacity="0.2"/>
  </g>
  
  <!-- Card name -->
  <text x="200" y="478" text-anchor="middle" fill="white" font-family="Arial,Helvetica,sans-serif" font-size="18" font-weight="bold">Darwin S. Icay</text>
  
  <!-- Title -->
  <text x="200" y="502" text-anchor="middle" fill="white" font-family="Arial,Helvetica,sans-serif" font-size="13" opacity="0.6">Barangay Captain</text>
  
  <!-- Level/stat hint -->
  <text x="200" y="526" text-anchor="middle" fill="#2980b9" font-family="Arial,Helvetica,sans-serif" font-size="11" opacity="0.5">NCR • Common • Trapo</text>
  
  <!-- Bottom corner decorations -->
  <circle cx="60" cy="520" r="20" fill="white" opacity="0.04"/>
  <circle cx="340" cy="520" r="20" fill="white" opacity="0.04"/>
</svg>